Coordinates
version=1
nRows=10
nColumns=22
inDegrees=yes

Units are S.I. units (second, meters, Newtons, ...)
If the header above contains a line with 'inDegrees', this indicates whether rotational values are in degrees (yes) or radians (no).

endheader
time	pelvis_tilt	pelvis_list	pelvis_rotation	pelvis_tx	pelvis_ty	pelvis_tz	hip_flexion_r	hip_adduction_r	hip_rotation_r	knee_angle_r	ankle_angle_r	subtalar_angle_r	hip_flexion_l	hip_adduction_l	hip_rotation_l	knee_angle_l	ankle_angle_l	subtalar_angle_l	lumbar_extension	lumbar_bending	lumbar_rotation
      0.01000000	     -1.64455625	     -3.08182768	     -9.13910452	     -1.22756097	      0.93124155	     -0.06090337	     -2.21004397	     -1.04200261	      5.16988266	     -4.31073989	      3.96176211	      2.24764127	     -2.79845323	     -7.51746255	    -14.99094247	     -8.48374005	      9.24511814	      4.63376805	     -5.27225829	     -0.99835959	      0.86908210
      0.02000000	     -1.77939393	     -3.22563118	     -9.10721308	     -1.22786298	      0.93119034	     -0.06070776	     -2.02643564	     -0.83676113	      4.80342937	     -4.39113187	      3.87470706	      2.27093071	     -2.60407452	     -7.73783429	    -14.97201085	     -8.58776821	      9.29561835	      4.71203457	     -5.20399484	     -0.84070844	      0.86659896
      0.03000000	     -1.98754648	     -3.38297701	     -9.10648222	     -1.22828999	      0.93107821	     -0.06040111	     -1.71725156	     -0.59749235	      4.32957938	     -4.54293516	      3.76665578	      2.29385662	     -2.31867774	     -7.99596808	    -14.98957918	     -8.72024457	      9.34217641	      4.81962484	     -5.06845505	     -0.66703860	      0.90342738
      0.04000000	     -2.22816641	     -3.55925202	     -9.11831959	     -1.22876271	      0.93094690	     -0.06001375	     -1.35949968	     -0.32843584	      3.79516336	     -4.71836921	      3.63739275	      2.31071674	     -1.99882631	     -8.28779271	    -15.02241371	     -8.86018919	      9.39849139	      4.94328090	     -4.90185159	     -0.47740037	      0.95043800
      0.05000000	     -2.47344444	     -3.72944829	     -9.13385416	     -1.22921794	      0.93080746	     -0.05965969	     -0.99641863	     -0.06935248	      3.25653211	     -4.89283245	      3.51207364	      2.31748133	     -1.67439341	     -8.57019467	    -15.05356539	     -9.00001469	      9.45139877	      5.06979563	     -4.72725807	     -0.28457724	      0.99410258
      0.06000000	     -2.69094297	     -3.85945301	     -9.14537556	     -1.22956388	      0.93067374	     -0.05939823	     -0.67343275	      0.13338702	      2.78865265	     -5.05066439	      3.41146103	      2.31131755	     -1.39621248	     -8.79147463	    -15.07821069	     -9.10186031	      9.48782120	      5.18167008	     -4.56215113	     -0.12941103	      1.02465533
      0.07000000	     -2.85452904	     -3.93912929	     -9.14169546	     -1.22976972	      0.93056421	     -0.05930232	     -0.42965632	      0.26047524	      2.42742076	     -5.17175585	      3.34858921	      2.29521095	     -1.18754844	     -8.93074512	    -15.08328541	     -9.16936415	      9.50427317	      5.26390182	     -4.43380560	     -0.01666464	      1.03526199
      0.08000000	     -2.96826924	     -3.96494145	     -9.12534931	     -1.22982466	      0.93046751	     -0.05934054	     -0.26151383	      0.31162017	      2.18213759	     -5.25645488	      3.32451212	      2.27286780	     -1.05059352	     -8.98556677	    -15.07397805	     -9.19170881	      9.50721241	      5.31821712	     -4.33159750	      0.04201760	      1.02488453
      0.09000000	     -3.00704471	     -3.95525230	     -9.11248336	     -1.22976266	      0.93043141	     -0.05948798	     -0.18997539	      0.30261986	      2.05128633	     -5.31338737	      3.30708824	      2.25810741	     -1.01790821	     -8.97199286	    -15.07293927	     -9.16894527	      9.50071123	      5.33407064	     -4.29722162	      0.06458951	      1.02170315
      0.10000000	     -3.03146122	     -3.92520657	     -9.08368940	     -1.22958427	      0.93036987	     -0.05971232	     -0.17333029	      0.26389351	      2.00511521	     -5.30538364	      3.32791521	      2.24764548	     -1.00399721	     -8.92768724	    -15.07296190	     -9.13886592	      9.51036313	      5.34293971	     -4.25266648	      0.07441237	      0.98487527
